<svg width="24" height="24" viewBox="0 0 24 24" fill="none" xmlns="http://www.w3.org/2000/svg">
<path d="M16.5947 9.08663C16.5947 10.7166 15.2727 12.0385 13.6428 12.0385C12.0128 12.0385 10.6909 10.7166 10.6909 9.08663C10.6909 7.45669 12.0128 6.13477 13.6428 6.13477C15.2727 6.13477 16.5947 7.45669 16.5947 9.08663Z" fill="#EF3D24"/>
<path fill-rule="evenodd" clip-rule="evenodd" d="M12 0C5.37754 0 0 5.37754 0 12C0 18.6225 5.37754 24 12 24C18.6225 24 24 18.6225 24 12C24 5.37754 18.6225 0 12 0ZM12 4.2738C16.261 4.2738 19.7262 7.73904 19.7262 12C19.7262 16.261 16.261 19.7262 12 19.7262C7.73904 19.7262 4.2738 16.261 4.2738 12C4.2738 7.73904 7.73904 4.2738 12 4.2738Z" fill="#EF3D24"/>
</svg>
