<?xml version="1.0" standalone="no"?>
<!DOCTYPE svg PUBLIC "-//W3C//DTD SVG 20010904//EN"
 "http://www.w3.org/TR/2001/REC-SVG-20010904/DTD/svg10.dtd">
<svg version="1.0" xmlns="http://www.w3.org/2000/svg"
 width="700.000000pt" height="700.000000pt" viewBox="0 0 700.000000 700.000000"
 preserveAspectRatio="xMidYMid meet">
<metadata>
Created by potrace 1.14, written by Peter Selinger 2001-2017
</metadata>
<g transform="translate(0.000000,700.000000) scale(0.100000,-0.100000)"
fill="#000000" stroke="none">
<path d="M3278 6996 c-1 -2 -42 -6 -89 -10 -47 -4 -96 -9 -109 -11 -12 -2 -48
-7 -79 -11 -57 -6 -76 -9 -121 -19 -33 -7 -69 -14 -105 -21 -16 -3 -82 -18
-145 -34 -418 -106 -864 -318 -1205 -573 -103 -77 -159 -121 -165 -128 -3 -3
-41 -37 -85 -76 -378 -331 -691 -767 -897 -1249 -70 -163 -139 -368 -174 -514
-50 -214 -73 -351 -91 -550 -15 -167 -9 -571 12 -714 3 -17 7 -49 9 -71 10
-83 18 -131 26 -165 5 -19 12 -48 14 -65 27 -149 109 -419 184 -605 174 -433
458 -851 805 -1188 81 -79 115 -109 227 -206 152 -131 452 -321 690 -438 178
-87 478 -198 635 -234 6 -1 48 -11 95 -22 108 -26 200 -44 299 -58 25 -3 57
-8 71 -10 163 -25 682 -25 842 1 13 2 46 7 73 10 72 10 86 12 120 19 17 3 44
8 60 11 506 96 1026 331 1455 659 224 171 477 424 646 646 27 36 52 66 57 68
4 2 7 10 7 17 0 7 3 15 8 17 25 11 191 284 278 458 128 256 223 515 280 763 2
9 6 27 9 40 14 60 55 299 60 352 4 33 9 71 11 85 9 46 11 524 4 605 -15 153
-21 210 -25 225 -2 8 -7 35 -10 60 -8 59 -40 212 -70 330 -91 360 -274 760
-493 1080 -56 82 -194 265 -211 280 -3 3 -35 38 -71 79 -268 306 -629 586
-1010 783 -312 162 -737 302 -1040 343 -19 3 -46 7 -60 10 -13 2 -52 7 -86 11
-33 3 -74 8 -90 10 -32 5 -540 14 -546 10z m377 -1250 c117 -7 260 -27 340
-48 22 -5 51 -12 64 -14 48 -9 216 -67 318 -110 464 -194 871 -565 1111 -1014
123 -231 220 -534 247 -780 4 -36 9 -78 11 -95 5 -43 5 -321 0 -374 -8 -76
-17 -144 -26 -196 -5 -27 -11 -62 -14 -76 -32 -193 -164 -522 -290 -722 -136
-216 -343 -448 -527 -590 -169 -130 -397 -260 -574 -327 -33 -12 -69 -26 -80
-31 -35 -15 -233 -68 -298 -80 -34 -6 -69 -12 -77 -14 -8 -2 -44 -6 -80 -10
-36 -4 -76 -9 -90 -11 -30 -5 -332 -5 -375 0 -16 2 -59 7 -95 10 -179 19 -438
91 -630 176 -395 174 -743 472 -984 842 -195 299 -305 622 -351 1023 -6 51 -6
352 -1 385 3 14 8 52 11 84 16 161 72 384 137 548 220 557 669 1018 1218 1251
149 62 345 123 455 140 17 3 46 7 65 11 84 14 111 17 220 22 63 4 116 7 118 9
1 1 19 1 40 -1 20 -2 82 -5 137 -8z"/>
<path d="M3805 5193 c-391 -82 -675 -424 -684 -820 -7 -306 131 -570 384 -738
153 -101 293 -143 477 -143 237 0 441 87 613 262 110 112 179 234 221 391 19
73 26 258 13 340 -15 92 -63 225 -111 306 -46 79 -175 217 -248 266 -94 63
-236 124 -327 139 -81 14 -268 12 -338 -3z"/>
</g>
</svg>
